<svg xmlns="http://www.w3.org/2000/svg" viewBox="-8 -8 98 88" width="98" height="88"><metadata><rdf:RDF xmlns:rdf="http://www.w3.org/1999/02/22-rdf-syntax-ns#" xmlns:dc="http://purl.org/dc/elements/1.1/"><rdf:Description><dc:creator>RealFaviconGenerator</dc:creator><dc:source>https://realfavicongenerator.net</dc:source></rdf:Description></rdf:RDF></metadata><rect x="-8" y="-8" width="98" height="88" rx="16" fill="#F2ECDE"></rect><path d="M79.3819 37.7511C78.9599 37.7646 78.3201 37.7951 77.5374 37.8729C76.6662 37.9507 75.7916 37.9914 74.9239 37.9812C74.4815 37.9068 73.8826 37.7951 73.236 37.6157C71.7829 37.2096 70.6973 36.6309 69.8295 36.1199C67.8966 34.9794 66.5354 33.9066 65.3341 32.959C63.0643 31.1688 61.7847 30.4614 60.2295 29.9437C58.3749 29.3311 56.7108 29.321 55.6252 29.4022C56.5304 29.524 57.8678 29.7812 59.389 30.3701C61.829 31.3143 63.67 32.668 64.9291 33.6697C66.2904 34.756 67.6992 35.8796 69.6662 36.861C70.2413 37.1487 70.813 37.3923 71.3915 37.5988C70.4046 37.3957 69.4518 37.125 68.4751 36.7358C66.9539 36.1368 65.4532 35.3077 64.0205 34.6139C63.8538 34.5327 63.4795 34.3229 63.4046 34.2653C62.8941 33.8727 62.1182 33.4633 61.4683 33.0707C59.8246 32.0994 58.2354 31.074 56.4522 30.2347C56.0132 30.0316 55.5402 29.832 55.0467 29.6898C54.8017 29.6188 54.5567 29.5545 54.3151 29.4969C54.1653 29.4631 54.0088 29.4191 53.9169 29.3853L53.968 29.365C54.1075 29.3142 54.2674 29.2702 54.424 29.2228L55.3904 28.9555C56.0404 28.7727 56.6904 28.5832 57.3336 28.3531C57.565 28.2685 57.7998 28.1771 58.021 28.0857C58.4872 27.903 58.8309 27.683 59.0725 27.5341C59.3243 27.375 59.5251 27.2464 59.7293 27.1212C60.1275 26.8539 60.529 26.5865 61.3355 26.0484C62.0876 25.5442 62.8873 25.0162 63.7211 24.5289C64.2622 24.2142 65.1299 23.6761 65.4668 23.4155C66.1542 22.8909 66.8791 22.451 67.5903 21.9873C69.0298 21.0567 70.4931 20.082 71.9462 19.2495C72.5554 18.9381 73.2155 18.6979 73.903 18.576L75.1587 18.3527L73.9608 17.9229C73.5354 17.7706 73.1067 17.7131 72.6745 17.7198C72.2525 17.7198 71.7931 17.8214 71.4324 17.95C70.9866 18.0752 70.1698 18.444 69.8806 18.6099C69.0808 19.0667 68.0667 19.4898 67.3964 19.8959C66.5898 20.3764 65.7799 20.8029 64.9598 21.2597C63.7041 21.9636 62.4653 22.6337 61.2539 23.3376C59.8722 24.1431 58.5008 24.9756 57.1464 25.842C56.4658 26.2752 55.8056 26.7185 55.125 27.128C54.7847 27.331 54.4444 27.5307 54.0973 27.7101C53.9237 27.7981 53.7502 27.8827 53.5834 27.9537L53.4609 27.9977C53.4371 28.0079 53.3724 28.018 53.2941 28.0519C53.2159 28.0857 53.1308 28.1128 53.0457 28.1365C52.8347 28.1974 52.5965 28.2346 52.3719 28.2719C51.984 28.3294 51.5892 28.3565 51.1945 28.3835C50.9971 28.3971 50.7997 28.4106 50.5921 28.4411C50.3777 28.4614 50.1191 28.5629 49.9422 28.6746C49.5678 28.9115 49.3058 29.2127 49.0778 29.5172C48.8532 29.8252 48.6728 30.1467 48.5265 30.4716C48.3768 30.7965 48.2611 31.1248 48.1794 31.4564L48.1488 31.5816L48.1283 31.7508C48.1283 31.8591 48.1351 31.9708 48.1624 32.069C48.21 32.2686 48.2951 32.4378 48.387 32.5834C48.7681 33.1688 49.2479 33.5479 49.6971 33.91C49.7754 33.9709 49.8537 34.0284 49.9285 34.0826L51.0175 34.8948L50.4594 33.6325C50.2791 33.223 50.1089 32.8406 49.9285 32.4311L49.8843 32.3397L49.8639 32.2923C49.8639 32.2923 49.8911 32.3059 49.9013 32.3126C49.9592 32.3498 50.0204 32.3837 50.0749 32.4243L50.1565 32.4852L50.2893 32.5969C50.5139 32.7932 50.7317 32.9996 50.9461 33.2094C51.7934 34.0589 52.5455 35.0065 53.1955 36.0184C53.8489 37.0302 54.4069 38.1064 54.8698 39.2198C55.336 40.3332 55.7103 41.4873 55.9962 42.6616C56.1527 43.2674 56.2684 43.7885 56.1969 44.3469C56.1833 44.4552 56.1085 45.0069 55.8328 45.5517C55.6899 45.7988 55.4619 46.1034 55.1012 46.3267C53.2907 47.4503 50.2042 45.2505 49.8571 45.0035C46.4098 42.5465 45.5658 38.2993 45.4638 37.7578C44.9431 34.9388 45.0656 30.0824 44.0685 28.4851C43.0544 26.864 42.3806 27.0569 40.6144 24.8402C40.6144 24.8402 38.6747 22.407 37.2965 18.6268C34.5876 11.1984 36.8711 1.14048 37.0991 0.175977C36.5274 0.0101494 35.6392 -0.145525 34.717 0.165824C32.539 0.903586 31.7767 3.67527 31.1336 6.02731C30.6299 7.87171 30.082 10.8025 30.4598 14.5556C30.1195 13.9532 29.6668 13.0124 29.4218 11.8042C28.7821 8.63994 30.0956 6.29466 29.3231 5.85471C28.7991 5.55352 27.7509 6.38942 27.2507 6.91059C26.3455 7.85141 25.9575 9.07312 25.8112 10.9209C25.6853 12.5216 25.6955 15.2087 26.7811 18.5794C26.3897 18.2308 25.8214 17.6555 25.328 16.8264C23.8647 14.3728 24.4874 12.0986 23.7081 11.8854C23.0786 11.7128 22.0781 13.0394 21.6289 14.1664C21.3668 14.8195 21.1116 15.8551 21.4451 17.7232C21.9113 20.3291 23.1398 22.3731 24.2254 23.7607C23.6162 23.5475 22.7825 23.1583 22.0576 22.4036C20.7951 21.0905 20.7475 19.5812 20.22 19.5744C19.7402 19.571 19.1787 20.813 19.063 22.0313C18.7601 25.1719 21.4179 27.7338 22.1529 28.4411C23.0615 29.3176 24.5589 30.7626 26.8627 31.2432C29.119 31.717 30.5721 30.9352 33.1379 31.9776C33.9717 32.316 34.4924 32.6713 34.8565 32.9759C36.1803 34.0724 36.6669 35.46 36.8268 35.8728C37.9635 38.8306 42.35 44.1405 47.4613 47.562C41.7204 45.0644 37.0174 39.7579 35.9455 36.8035C35.7821 36.3568 35.207 34.5868 33.6688 33.5749C32.8215 33.0165 31.8074 32.7729 31.8074 32.7729C30.3202 32.3837 29.4763 32.7323 27.6727 32.7796C27.6727 32.7796 26.5701 32.8101 24.4228 32.5292C21.1422 32.1028 18.5083 30.5257 16.7523 29.4496C14.1456 27.8556 12.5087 26.3225 9.34729 23.3241C7.62535 21.6929 5.34871 19.4424 2.77941 16.6166C2.58204 16.7689 2.29959 17.0328 2.08179 17.4254C1.24465 18.9381 2.22472 20.9213 2.80664 22.0652C4.97098 26.3158 10.2661 31.5038 11.4231 32.624C9.36431 31.6155 7.73425 30.6104 6.54999 29.8117C4.72596 28.5832 3.81734 27.9673 3.14014 27.1652C2.11242 25.9469 1.66663 24.8064 1.03366 24.891C0.414309 24.9722 0.108029 26.1567 0.0910135 26.221C-0.630431 29.1111 3.10271 32.4784 5.444 34.6139C6.91752 35.9574 8.30595 36.9558 9.39493 37.6665C7.55048 37.2502 6.16204 36.6614 5.20578 36.174C3.85818 35.4904 2.88151 34.7662 2.38467 35.1215C1.95929 35.4261 2.13284 36.3297 2.2009 36.6986C2.73518 39.5075 5.79792 42.3096 7.50624 43.7107C6.98898 43.7479 6.58742 43.8935 6.39685 44.198C5.53928 45.5686 9.48681 49.7583 13.0566 52.2863C15.9526 54.3372 18.2224 55.9447 21.4281 56.1173C27.1826 56.4286 29.3878 51.7652 33.7913 53.1189C35.4282 53.6231 37.3475 54.9497 39.3587 54.4489C39.665 54.3744 40.4749 54.1307 41.1827 54.4049C40.5532 54.7027 39.8862 54.9193 39.192 55.0107C37.6538 55.2137 36.1088 54.8177 34.5638 54.6452C31.5249 54.3067 29.2959 55.7687 27.2541 57.8737C27.0329 58.1004 26.8185 58.334 26.6109 58.5776C26.3897 58.8314 26.2128 59.109 26.0392 59.3831C25.7023 59.9347 25.4198 60.5168 25.1782 61.1192C24.9843 61.5997 24.8175 62.1006 24.6814 62.615L24.6099 62.8959L24.5419 63.2309C24.4976 63.4543 24.4432 63.6844 24.4228 63.8875C24.3751 64.3037 24.3819 64.6388 24.3683 65.0246L24.3615 65.319V65.3969V65.4341L24.3853 65.4138L24.484 65.3258L24.8754 64.9772L25.0727 64.8012C25.1408 64.7369 25.1953 64.7031 25.2803 64.5982L25.7568 64.0635C25.8316 63.9789 25.9031 63.8976 25.9779 63.813C25.8214 64.0973 25.6615 64.385 25.5049 64.6659C25.3756 64.896 25.2463 65.1261 25.1204 65.3562L25.0966 65.4002C25.0966 65.4002 25.1238 65.3935 25.134 65.3901L25.2327 65.3529L25.4233 65.2784L25.7874 65.1329C26.2502 64.9501 26.7164 64.7505 27.2473 64.3951C27.38 64.3071 27.5161 64.209 27.6488 64.1075L27.9517 63.8807L28.4349 63.522C28.7787 63.2309 29.1258 62.9365 29.4729 62.6421L29.5069 62.7267L29.5239 62.7673L29.5648 62.8621C29.6737 63.099 29.7894 63.3359 29.9153 63.5626C30.1637 64.0229 30.4495 64.4662 30.7694 64.8824C31.4058 65.7217 32.1919 66.4358 33.0733 67.001C33.2979 67.1228 33.5191 67.2446 33.7403 67.3665C33.8186 67.4105 33.9138 67.4646 34.0159 67.5188C34.0602 67.5458 34.1384 67.5797 34.1725 67.5966L34.2439 67.6304C34.3392 67.6744 34.4277 67.7184 34.4277 67.732L34.4515 67.7692C34.3869 67.803 34.329 67.8233 34.295 67.847C34.2031 67.9046 34.1112 67.9621 34.0227 68.0162C33.7062 68.2125 33.4034 68.3885 33.1243 68.5306C32.6581 68.7642 32.2327 68.9368 31.7155 69.0721C31.4773 69.133 31.239 69.1804 30.9974 69.221L30.6367 69.2718C30.5755 69.2819 30.5142 69.2853 30.4564 69.2887L30.327 69.2989C30.2386 69.3192 30.1875 69.2447 30.1637 69.1601C30.0854 68.9774 30.0378 68.7845 29.9697 68.5983C29.8438 68.2058 29.7145 67.8064 29.5375 67.4037C29.4797 67.2751 29.415 67.1431 29.3333 67.0111C29.2891 66.9401 29.2483 66.8791 29.1768 66.7979C29.1019 66.7167 29.0101 66.6456 28.908 66.6016C28.5336 66.4527 28.2205 66.4764 27.9211 66.5136C27.7509 66.534 27.6148 66.5678 27.4889 66.6016C27.2609 66.6626 26.8219 66.7776 26.5463 66.913C26.3761 66.9942 25.8759 67.2751 25.4947 68.1008C26.0358 67.9113 26.4884 67.8944 26.713 67.935C26.8525 67.9621 27.0907 68.0467 27.186 68.1076C27.2745 68.1618 27.329 68.2024 27.4038 68.2531C27.5433 68.3513 27.6761 68.4596 27.8054 68.5746C27.87 68.6288 27.9313 68.6897 27.9959 68.7472L28.1014 68.8555C28.1525 68.9131 28.2069 68.974 28.2274 69.0484C28.2512 69.1297 28.1627 69.2041 28.0844 69.1838C27.9994 69.177 27.9381 69.1669 27.8394 69.15L27.2949 69.0552C26.8321 68.9706 26.1243 68.8285 25.2701 68.578C24.8856 68.4663 24.8651 68.4494 24.2186 68.2464C22.9867 67.8606 22.3673 67.6711 21.6697 67.5357C20.9823 67.4037 20.4888 67.3123 19.8082 67.3394C19.5156 67.3529 19.3454 67.38 18.2054 67.5255C17.6643 67.5966 17.2253 67.6507 16.9531 67.6846C18.447 68.6152 19.7674 69.2143 20.7543 69.6001C21.959 70.0739 23.0479 70.3784 23.6877 70.5612C23.7898 70.5916 24.7392 70.8556 25.6751 71.062C25.7806 71.0857 25.9643 71.1264 26.2196 71.1805C28.4996 71.6509 31.4364 71.7592 31.4364 71.7592C33.1209 71.8167 35.5813 71.8979 38.7802 71.458C43.8099 70.7608 47.475 69.2041 48.6864 68.6626C48.6864 68.6626 52.913 66.7742 56.4998 63.8029C57.0988 63.3088 57.5105 62.9128 57.861 62.5406C59.3992 60.9127 60.2057 59.2748 60.529 58.6013C60.6073 58.4355 60.7672 58.0463 60.8251 57.9482C61.2368 57.2273 61.5227 56.2087 61.7133 55.3017C61.9004 54.4523 62.0059 53.5825 62.0264 52.7128C62.0468 51.9682 61.9889 51.2203 61.9005 50.4859C62.023 50.7465 62.1523 51.0173 62.2816 51.3117L62.4926 51.8092L62.5913 52.0596L62.7002 52.3608C62.8771 52.8312 63.003 53.4776 63.1289 54.0969C63.1528 54.0834 63.1766 54.0766 63.1902 54.08H63.2174C63.2174 54.08 63.2242 54.08 63.231 54.08L63.2549 54.0394L63.4318 53.7179C63.5441 53.508 63.653 53.2982 63.7551 53.085C63.9559 52.6485 64.1294 52.0867 64.1873 51.7719C64.337 51.0342 64.3302 50.266 64.1771 49.5282C64.0239 48.7904 63.7211 48.0933 63.3263 47.4604C63.1357 47.1389 62.9043 46.8479 62.6729 46.5568L61.9821 45.7209C60.0832 43.4027 58.3545 40.7969 56.8129 38.2316C56.3841 37.433 55.9621 36.6309 55.6082 35.8051C55.319 35.1486 55.091 34.4751 54.8766 33.7881C56.3433 35.4058 57.4629 37.301 58.8513 39.0269C59.7089 40.1234 60.689 41.1556 61.8086 42.0051C62.0502 42.181 62.3496 42.3773 62.6253 42.5364C62.9077 42.6887 63.1494 42.8308 63.2719 42.9053C63.9899 43.3757 64.8509 43.643 65.6778 43.8461C66.6681 44.0762 67.655 44.1608 68.7235 44.1574C70.1188 44.1439 71.7523 43.7344 73.1067 43.176C73.3006 43.1015 73.6614 42.9425 73.7635 42.8647C74.4134 42.4653 75.2063 41.9712 75.9005 41.4703C76.7853 40.8172 77.4047 40.1708 78.0036 39.5007C78.218 39.2469 78.429 39.01 78.5107 38.878C78.5311 38.8543 78.5549 38.834 78.5754 38.807C78.674 38.6987 78.7421 38.6242 78.7965 38.5701C78.7795 38.5938 78.7591 38.6208 78.7489 38.6445C78.6604 38.7934 78.6502 38.8746 78.6945 38.9186C78.7489 38.9728 78.8272 38.9728 78.9565 38.8916C79.0994 38.7867 79.2151 38.7156 79.6133 38.5091L81.2603 37.6631L79.3955 37.7274L79.3819 37.7511ZM51.8513 30.1264C51.8513 30.1264 51.8411 30.1433 51.8376 30.1535C51.8376 30.1602 51.8445 30.1704 51.824 30.1772C51.8172 30.1772 51.824 30.1839 51.824 30.1873C51.8377 30.2042 51.7934 30.2212 51.7219 30.2212C51.7117 30.2212 51.7083 30.2212 51.7049 30.2212C51.722 30.2212 51.7322 30.2279 51.7424 30.2381C51.7696 30.2719 51.7458 30.3024 51.7492 30.3261C51.7424 30.3565 51.739 30.3802 51.7322 30.4107C51.7322 30.4141 51.7458 30.4242 51.7424 30.4276C51.7356 30.4479 51.7424 30.4716 51.7185 30.4851C51.6947 30.4987 51.6811 30.5156 51.6845 30.5393C51.6845 30.563 51.6709 30.5765 51.6641 30.5968C51.6641 30.6036 51.6641 30.6104 51.6437 30.607C51.6301 30.607 51.6233 30.6104 51.6369 30.6307C51.6369 30.634 51.6369 30.634 51.6301 30.634C51.6301 30.634 51.6165 30.634 51.6199 30.634C51.6335 30.6679 51.6028 30.6713 51.596 30.6882C51.596 30.6916 51.5824 30.6882 51.596 30.7085C51.596 30.7119 51.596 30.7186 51.5926 30.7153C51.579 30.7085 51.5756 30.7085 51.5722 30.7153C51.5586 30.7322 51.5416 30.7423 51.528 30.7559C51.5382 30.7829 51.5212 30.7829 51.5144 30.7897C51.5076 30.7931 51.4939 30.7897 51.4837 30.7897C51.4735 30.7897 51.4769 30.81 51.4565 30.7931V30.7999C51.4497 30.8066 51.4463 30.8202 51.4327 30.8168C51.4259 30.8168 51.4191 30.8168 51.4157 30.8168C51.3612 30.8472 51.3034 30.8709 51.2455 30.8879C51.2387 30.8879 51.2353 30.8879 51.2319 30.9048C51.2319 30.9183 51.2217 30.9217 51.2149 30.9115C51.2047 30.8946 51.1979 30.9014 51.1911 30.9014C51.1775 30.9014 51.1673 30.9048 51.1536 30.9048C51.1468 30.9048 51.14 30.9217 51.1298 30.8912C51.1298 30.8912 51.1298 30.8912 51.1264 30.8912C51.1196 30.9183 51.1128 30.898 51.1026 30.8912C51.0958 30.8912 51.0924 30.8912 51.0856 30.9048C51.0788 30.9183 51.0686 30.9217 51.0652 30.9048C51.0584 30.8845 51.0516 30.8912 51.0447 30.8912C51.0039 30.8912 50.9631 30.8811 50.9222 30.8777C50.9018 30.8743 50.878 30.8946 50.861 30.8777C50.8576 30.8777 50.8474 30.8811 50.8508 30.8608C50.8508 30.8574 50.8474 30.8608 50.844 30.8608C50.8338 30.8743 50.8304 30.8676 50.8235 30.8642C50.7963 30.8506 50.7759 30.8303 50.7453 30.8337C50.7181 30.8337 50.7044 30.8202 50.684 30.81C50.6772 30.81 50.6772 30.7931 50.6738 30.7863C50.6704 30.7796 50.6636 30.7762 50.6568 30.7728C50.6534 30.7728 50.6534 30.7626 50.6398 30.7728C50.633 30.7796 50.6262 30.7762 50.6296 30.7728C50.6364 30.7491 50.6262 30.7525 50.6194 30.7457C50.6023 30.7288 50.5819 30.7153 50.5649 30.695C50.5615 30.6916 50.5479 30.695 50.5649 30.6713C50.5649 30.6713 50.5581 30.6713 50.5547 30.6713H50.5445C50.5581 30.6374 50.5343 30.6374 50.5241 30.6239C50.5037 30.5934 50.4798 30.563 50.4628 30.5257C50.4594 30.5156 50.4356 30.5156 50.4322 30.5054C50.4288 30.4953 50.422 30.4885 50.4186 30.4784C50.4186 30.4716 50.405 30.4682 50.4254 30.4513C50.4322 30.4479 50.4288 30.4411 50.4254 30.4411C50.3982 30.4411 50.4084 30.431 50.4016 30.4242C50.3948 30.4175 50.405 30.4005 50.3778 30.3971C50.3709 30.3971 50.3811 30.387 50.3811 30.3836C50.3811 30.3768 50.3812 30.3701 50.3778 30.3633C50.3778 30.3633 50.3675 30.3599 50.3641 30.3565C50.3539 30.3295 50.3403 30.3024 50.3369 30.2753C50.3335 30.2482 50.3301 30.2178 50.3369 30.1873C50.3369 30.1569 50.3369 30.1298 50.3471 30.1027C50.3471 30.0926 50.3335 30.0756 50.3675 30.0723C50.3471 30.0587 50.3641 30.052 50.388 30.0486C50.3914 30.0486 50.3811 30.0418 50.3811 30.0384C50.3743 30.0283 50.3437 30.0147 50.3811 30.0147C50.3811 30.0147 50.3539 29.9944 50.3778 29.991C50.3914 29.991 50.3914 29.9809 50.3948 29.9741C50.3982 29.9674 50.4016 29.9606 50.4016 29.9538C50.4016 29.947 50.4186 29.9437 50.3948 29.9267C50.3914 29.9267 50.4118 29.9267 50.4118 29.9234C50.4118 29.9064 50.4424 29.903 50.422 29.8726C50.4152 29.8658 50.422 29.8591 50.4288 29.8591C50.456 29.8591 50.4526 29.8421 50.4526 29.8218C50.4526 29.7981 50.4594 29.7778 50.5003 29.7846C50.5071 29.7846 50.5139 29.788 50.5071 29.7778C50.5003 29.7711 50.5071 29.7677 50.5071 29.7643C50.5343 29.7305 50.5615 29.7 50.5921 29.6729C50.6023 29.6662 50.6262 29.6797 50.6296 29.6628C50.6296 29.656 50.6432 29.6628 50.6296 29.6425V29.6391C50.6568 29.6526 50.6466 29.612 50.6636 29.6154C50.667 29.6154 50.6738 29.6154 50.6772 29.6188C50.6806 29.6188 50.6874 29.6222 50.6874 29.6188C50.6874 29.5815 50.7215 29.5883 50.7351 29.5714C50.7419 29.5646 50.7555 29.5748 50.7487 29.5477C50.7487 29.5443 50.7487 29.5409 50.7555 29.5477C50.7827 29.5714 50.7827 29.5409 50.7997 29.5477C50.8065 29.5477 50.8099 29.5308 50.8235 29.5545H50.8269C50.8269 29.5511 50.8269 29.5409 50.8304 29.5409C50.8372 29.5409 50.8508 29.5511 50.8542 29.5409C50.8576 29.5274 50.8678 29.5308 50.8746 29.5274C50.878 29.5274 50.8882 29.5376 50.8916 29.5376C50.895 29.5376 50.9018 29.5376 50.9052 29.5376C50.912 29.5376 50.9188 29.5308 50.9256 29.5342C50.9324 29.5376 50.9324 29.5105 50.9426 29.5274C50.9495 29.5409 50.9529 29.5139 50.9563 29.5105C50.9563 29.5105 50.9631 29.5105 50.9665 29.5105L50.9733 29.5206C50.9767 29.5206 50.9835 29.5206 50.9869 29.5105C50.9869 29.5003 50.9971 29.5172 51.0039 29.5172C51.0107 29.5172 51.0141 29.5172 51.0209 29.5172C51.0243 29.5172 51.0311 29.5206 51.0345 29.5172C51.055 29.4868 51.0754 29.5037 51.0992 29.5037C51.106 29.5037 51.1128 29.4936 51.1162 29.5172C51.1162 29.5206 51.1196 29.5206 51.123 29.5172C51.1468 29.4834 51.1639 29.5172 51.1843 29.5071C51.2013 29.5037 51.2183 29.4902 51.2319 29.5003C51.2455 29.5071 51.2591 29.5172 51.2761 29.5105C51.2898 29.5037 51.3034 29.5003 51.3136 29.5105C51.3204 29.5206 51.351 29.48 51.3476 29.5206C51.3578 29.524 51.3714 29.5274 51.3782 29.5342C51.385 29.5409 51.4021 29.5342 51.3987 29.5612C51.3987 29.5714 51.4055 29.5714 51.4123 29.568C51.4361 29.5511 51.4429 29.5646 51.4463 29.5815C51.4463 29.5849 51.4565 29.5782 51.4599 29.5815C51.4701 29.5849 51.4803 29.5883 51.4871 29.5985C51.5042 29.6255 51.5484 29.6188 51.5722 29.6391C51.5756 29.6425 51.5926 29.6323 51.596 29.6391C51.596 29.6831 51.6437 29.6831 51.6505 29.7169C51.6607 29.7677 51.7015 29.7914 51.7185 29.832C51.7185 29.8387 51.7049 29.8523 51.7117 29.8523C51.7322 29.8523 51.722 29.8658 51.739 29.8658C51.7662 29.8658 51.756 29.8861 51.7696 29.8929C51.7764 29.8997 51.7696 29.9166 51.7968 29.9132C51.8002 29.9132 51.8002 29.9132 51.7968 29.92C51.7764 29.9437 51.8172 29.9403 51.8104 29.9606C51.8513 29.9741 51.8377 30.008 51.8513 30.035C51.8513 30.0384 51.8615 30.0418 51.8649 30.0452C51.8649 30.0452 51.8717 30.0452 51.8717 30.052C51.8445 30.0824 51.8717 30.1027 51.8683 30.1298L51.8513 30.1264Z" fill="#C25B32"></path></svg>