<svg width="197" height="108" viewBox="0 0 197 108" fill="none" xmlns="http://www.w3.org/2000/svg">
<g clip-path="url(#clip0_221_40)">
<path d="M70.3098 107.862V100.707H72.8833C75.1886 100.707 76.5618 102.189 76.5618 104.238C76.5618 106.286 75.1886 107.862 72.9157 107.862H70.3098ZM72.8725 106.848C74.4814 106.848 75.3183 105.674 75.3183 104.235C75.3183 102.797 74.4706 101.688 72.84 101.688H71.5209V106.85H72.8725V106.848Z" fill="white"/>
<path d="M80.0608 107.862V100.707H84.3946V101.688H81.274V103.734H84.1913V104.683H81.274V106.858H84.4919V107.86H80.063L80.0608 107.862Z" fill="white"/>
<path d="M92.009 102.786C91.9333 101.709 91.0856 101.518 90.4109 101.518C89.7361 101.518 89.0052 101.784 89.0052 102.477C89.0052 104.278 93.2741 103.158 93.2741 105.867C93.2741 107.082 92.3204 108 90.4 108C89.6172 108 87.6428 107.755 87.5476 105.644H88.7587C88.8019 106.721 89.6605 107.052 90.506 107.052C91.3516 107.052 92.0285 106.753 92.0285 106.018C92.0285 104.184 87.7704 105.379 87.7704 102.573C87.7704 101.165 89.1328 100.589 90.5276 100.589C91.4186 100.589 93.1227 100.899 93.2201 102.786H92.009Z" fill="white"/>
<path d="M96.6975 107.862V100.707H97.9085V107.862H96.6975Z" fill="white"/>
<path d="M107.112 107.862L106.985 106.658C106.513 107.628 105.579 108.002 104.796 108.002C102.759 108.002 101.462 106.605 101.462 104.291C101.462 101.978 102.792 100.591 104.861 100.591C106.459 100.591 107.51 101.434 107.8 102.872H106.557C106.353 102.062 105.774 101.593 104.861 101.593C103.445 101.593 102.705 102.606 102.705 104.291C102.705 105.977 103.445 107.033 104.872 107.033C105.901 107.033 106.619 106.308 106.619 105.07V104.954H104.935V104.111H107.895V107.865H107.112V107.862Z" fill="white"/>
<path d="M116.211 107.862L112.757 102.563V107.862H111.546V100.707H112.833L116.351 106.123V100.707H117.562V107.862H116.211Z" fill="white"/>
<path d="M125.425 102.786C125.35 101.709 124.502 101.518 123.827 101.518C123.152 101.518 122.421 101.784 122.421 102.477C122.421 104.278 126.69 103.158 126.69 105.867C126.69 107.082 125.737 108 123.816 108C123.033 108 121.059 107.755 120.964 105.644H122.175C122.218 106.721 123.077 107.052 123.922 107.052C124.768 107.052 125.445 106.753 125.445 106.018C125.445 104.184 121.187 105.379 121.187 102.573C121.187 101.165 122.549 100.589 123.944 100.589C124.835 100.589 126.539 100.899 126.636 102.786H125.425Z" fill="white"/>
<path d="M12.3678 86.5324C13.7843 86.5324 16.2647 86.3561 18.1462 85.896L18.2846 82.1077C16.3166 82.7076 14.7358 82.7893 14.0157 82.7893C8.20914 82.7893 6.14172 78.0959 6.14172 73.7035C6.14172 68.3887 9.22123 65.34 14.5909 65.34C16.0182 65.34 17.4282 65.555 18.8555 65.9958L19.0004 62.8353C16.734 62.4182 14.7769 62.1688 12.6359 62.1688C4.13269 62.1688 0 65.942 0 73.7013C0 76.7113 0.890982 86.5303 12.3678 86.5303V86.5324Z" fill="white"/>
<path d="M90.1167 62.6655C89.2041 62.6655 88.0277 62.6655 86.9875 62.6504C87.5151 67.1805 87.5649 71.6589 87.5649 75.5718V80.6587L84.6692 76.4641C81.9162 72.4759 79.213 67.9394 76.4211 62.6182C75.3636 62.6784 74.2456 62.7021 72.7512 62.7021C70.9368 62.7021 69.2543 62.6698 67.7211 62.6031C67.946 66.8967 68.0887 70.6591 68.0887 74.5011C68.0887 77.8573 67.9741 82.6066 67.667 86.2422C68.8672 86.1626 70.141 86.1497 71.1401 86.1497C71.8235 86.1497 72.4074 86.1562 72.9221 86.1712C72.8334 85.5907 72.708 84.6964 72.615 83.5956C72.5696 83.0538 72.4571 81.5961 72.5155 77.595C72.5263 76.8145 72.5479 75.7266 72.589 74.4216C72.669 73.1746 72.7469 71.9255 72.8269 70.6785C73.7871 71.9018 74.5526 72.9016 75.0457 73.5487C80.1191 80.205 82.2925 83.7181 82.9218 84.7501C83.3241 85.408 83.6376 85.9412 83.8085 86.2336C85.3201 86.1282 86.4079 86.0702 88.1617 86.0702C89.5458 86.0702 90.8087 86.1067 91.9722 86.1798C91.743 83.4859 91.7127 80.4136 91.7127 78.1583C91.7127 71.6245 91.9484 66.8343 92.4912 62.6204C91.7603 62.6483 90.9731 62.6612 90.1189 62.6612L90.1167 62.6655Z" fill="white"/>
<path d="M165.104 86.1497C166.473 86.0529 167.769 85.9605 173.004 85.9605C175.279 85.9605 175.712 85.9777 176.866 86.025C177.13 86.0357 177.431 86.0486 177.803 86.0615L178.084 82.8409C176.384 82.9397 174.427 82.9397 172.392 82.9397H170.831L170.805 81.3875C170.792 80.6522 170.781 80.0803 170.77 79.5686C170.746 78.4721 170.729 77.6056 170.729 75.9502C170.729 73.8819 170.764 67.4341 171.164 62.6998C170.15 62.7407 169.226 62.7407 168.216 62.7407C167.001 62.7407 165.755 62.7407 164.479 62.7041C164.858 67.0815 164.897 69.7238 164.897 75.0364C164.897 81.9164 164.845 83.789 164.721 86.1755C164.856 86.1669 164.983 86.1583 165.111 86.1475L165.104 86.1497Z" fill="white"/>
<path d="M194.243 62.702C192.986 62.702 191.73 62.6719 190.32 62.6074C190.616 66.9826 190.616 69.711 190.616 75.3805C190.616 79.13 190.441 83.2515 190.29 86.1024C191.133 86.0659 192 86.0379 192.9 86.0379C194.206 86.0379 195.564 86.0938 196.903 86.1992C196.663 82.9828 196.641 79.9341 196.641 76.6382C196.641 68.6424 196.797 65.3701 197 62.6418C196.159 62.6827 195.253 62.702 194.243 62.702Z" fill="white"/>
<path d="M112.197 82.9033L112.132 75.058H113.732C115.888 75.058 117.482 75.0687 118.953 75.1096L120.512 72.4242C118.821 72.5081 116.866 72.5339 113.771 72.5339H112.184V70.9558C112.184 69.5798 112.184 68.2812 112.264 66.9031L112.35 65.4153H113.849C114.312 65.4153 114.653 65.4003 115.049 65.3852C115.568 65.3637 116.156 65.3401 117.145 65.3401C118.786 65.3401 120.33 65.4046 121.824 65.5357C121.786 64.3554 121.766 63.6502 121.766 62.6117V62.5687C119.521 62.7106 116.606 62.7794 112.925 62.7794C111.585 62.7794 108.6 62.7687 105.906 62.6934C106.154 65.1616 106.308 68.5607 106.308 74.6946C106.308 81.7595 106.308 83.9976 106.176 86.1368C109.076 85.9605 111.747 85.9605 114.344 85.9605C116.941 85.9605 118.827 85.9605 121.53 86.1519L121.928 82.7248C119.813 82.8882 116.946 82.9054 113.769 82.9054H112.195L112.197 82.9033Z" fill="white"/>
<path d="M141.487 82.9033L141.422 75.058H143.022C145.178 75.058 146.772 75.0687 148.243 75.1096L149.802 72.4242C148.111 72.5081 146.156 72.5339 143.061 72.5339H141.474V70.9558C141.474 69.5798 141.474 68.2812 141.554 66.9031L141.64 65.4153H143.139C143.602 65.4153 143.943 65.4003 144.339 65.3852C144.858 65.3637 145.446 65.3401 146.435 65.3401C148.076 65.3401 149.62 65.4046 151.115 65.5357C151.076 64.3554 151.056 63.6502 151.056 62.6117V62.5687C148.811 62.7106 145.896 62.7794 142.216 62.7794C140.875 62.7794 137.89 62.7687 135.196 62.6934C135.444 65.1616 135.598 68.5607 135.598 74.6946C135.598 81.7595 135.598 83.9976 135.466 86.1368C138.366 85.9605 141.037 85.9605 143.634 85.9605C146.231 85.9605 148.117 85.9605 150.82 86.1519L151.218 82.7248C149.103 82.8882 146.236 82.9054 143.059 82.9054H141.485L141.487 82.9033Z" fill="white"/>
<path d="M47.5702 62.4161C46.4284 62.4978 44.9492 62.5128 42.233 62.5128C42.034 62.5128 40.6392 62.5128 39.3805 62.4956C37.2396 68.1544 32.8669 78.6893 29.3916 86.0487C30.0101 86.0358 30.6394 86.0358 31.3076 86.0358C31.5153 86.0358 34.2012 86.0379 35.5506 86.1196C35.9226 84.8597 36.4243 83.2516 36.9714 81.566C37.1098 81.1682 37.2482 80.7705 37.3867 80.3706C38.7512 80.3964 40.1245 80.4179 41.5064 80.4329C43.2321 80.4523 44.9449 80.4652 46.6468 80.4716L47.7735 80.4996L48.1174 81.566C48.4915 82.7227 48.8418 83.8729 49.1792 84.9866C49.3111 85.423 49.443 85.8573 49.5771 86.2895C50.9309 86.1712 52.3625 86.111 53.8504 86.111C54.3369 86.111 54.8387 86.1175 55.349 86.1304C53.3248 80.4028 49.4992 68.7564 47.5702 62.4139V62.4161ZM46.5149 72.7425C46.0045 72.7941 45.5785 72.8134 45.2865 72.822C45.4206 73.0456 45.6044 73.396 45.7558 73.8518C45.9007 74.2947 46.0348 74.6946 45.8986 74.8064C45.7861 74.8989 45.4509 74.8301 44.3804 73.9572C44.3091 74.3098 44.1793 74.8344 43.9176 75.4342C43.7468 75.8277 43.2797 76.8984 42.9531 76.8382C42.7239 76.7952 42.6525 76.2082 42.5293 75.0988C42.4557 74.4409 42.4276 73.897 42.4146 73.5379C42.1335 73.8389 41.7248 74.2023 41.1668 74.5033C40.8922 74.6516 40.7213 74.7398 40.6413 74.6774C40.5008 74.5699 40.6608 74.0346 41.4242 72.693C41.063 72.6736 40.5267 72.6242 39.8866 72.4888C39.5363 72.4157 37.9792 72.0867 37.9943 71.7599C38.0051 71.5148 38.881 71.3622 39.5687 71.2418C40.2694 71.1192 40.8554 71.087 41.249 71.0805C40.7992 70.3517 40.3191 69.4788 40.5116 69.3154C40.5635 69.2702 40.6543 69.2917 40.7408 69.3197C41.4674 69.5519 42.207 70.2958 42.4817 70.5882C42.4319 70.1087 42.3995 69.3992 42.5163 68.55C42.5963 67.9609 42.6958 67.2385 42.8969 67.217C43.0742 67.1998 43.3835 67.7179 43.9652 70.2829C44.4215 69.7798 44.8778 69.511 45.1871 69.3627C45.5482 69.1907 45.6217 69.2272 45.6434 69.2423C45.8877 69.4078 45.479 70.4269 45.0724 71.3106C45.4682 71.3665 46.0564 71.4589 46.7636 71.603C47.9335 71.8438 48.8829 72.0373 48.8743 72.2394C48.8656 72.5124 47.1226 72.6865 46.5127 72.7467L46.5149 72.7425Z" fill="white"/>
<path d="M123.137 23.983C122.869 23.9916 122.462 24.0109 121.965 24.0604C121.411 24.1098 120.856 24.1356 120.304 24.1292C120.023 24.0819 119.642 24.0109 119.231 23.897C118.308 23.639 117.618 23.2713 117.067 22.9467C115.838 22.2222 114.973 21.5406 114.21 20.9386C112.767 19.8013 111.954 19.3519 110.966 19.023C109.787 18.6338 108.73 18.6274 108.04 18.679C108.615 18.7564 109.465 18.9198 110.432 19.2939C111.982 19.8937 113.152 20.7537 113.953 21.3901C114.818 22.0803 115.713 22.794 116.963 23.4175C117.328 23.6003 117.692 23.7551 118.059 23.8862C117.432 23.7572 116.827 23.5852 116.206 23.338C115.239 22.9574 114.286 22.4307 113.375 21.99C113.269 21.9384 113.031 21.8051 112.984 21.7685C112.659 21.5191 112.166 21.259 111.753 21.0096C110.709 20.3925 109.699 19.7411 108.566 19.2079C108.287 19.0789 107.986 18.952 107.672 18.8617C107.517 18.8166 107.361 18.7757 107.208 18.7392C107.112 18.7177 107.013 18.6897 106.954 18.6682L106.987 18.6553C107.076 18.6231 107.177 18.5951 107.277 18.565L107.891 18.3952C108.304 18.2791 108.717 18.1587 109.126 18.0125C109.273 17.9587 109.422 17.9007 109.563 17.8426C109.859 17.7265 110.077 17.5868 110.231 17.4922C110.391 17.3911 110.518 17.3094 110.648 17.2299C110.901 17.06 111.156 16.8902 111.669 16.5484C112.147 16.228 112.655 15.8926 113.185 15.583C113.529 15.3831 114.08 15.0412 114.294 14.8757C114.731 14.5424 115.192 14.2629 115.644 13.9684C116.558 13.3771 117.488 12.7579 118.412 12.229C118.799 12.0312 119.218 11.8786 119.655 11.8012L120.453 11.6593L119.692 11.3862C119.422 11.2895 119.149 11.2529 118.875 11.2572C118.606 11.2572 118.315 11.3217 118.085 11.4034C117.802 11.483 117.283 11.7173 117.099 11.8227C116.591 12.1129 115.946 12.3817 115.52 12.6397C115.008 12.945 114.493 13.2159 113.972 13.5061C113.174 13.9533 112.387 14.379 111.617 14.8262C110.739 15.3379 109.867 15.8668 109.007 16.4172C108.574 16.6924 108.155 16.974 107.722 17.2342C107.506 17.3632 107.29 17.49 107.069 17.604C106.959 17.6599 106.849 17.7136 106.743 17.7588L106.665 17.7867C106.65 17.7932 106.608 17.7996 106.559 17.8211C106.509 17.8426 106.455 17.8598 106.401 17.8749C106.267 17.9136 106.115 17.9372 105.973 17.9609C105.726 17.9974 105.475 18.0146 105.224 18.0318C105.099 18.0404 104.974 18.049 104.842 18.0684C104.705 18.0813 104.541 18.1458 104.429 18.2167C104.191 18.3672 104.024 18.5586 103.879 18.7521C103.737 18.9477 103.622 19.152 103.529 19.3584C103.434 19.5648 103.36 19.7733 103.308 19.984L103.289 20.0636L103.276 20.1711C103.276 20.2399 103.28 20.3108 103.298 20.3732C103.328 20.5 103.382 20.6075 103.44 20.7C103.683 21.0719 103.987 21.3127 104.273 21.5428C104.323 21.5815 104.372 21.618 104.42 21.6524L105.112 22.1684L104.757 21.3665C104.643 21.1063 104.535 20.8634 104.42 20.6032L104.392 20.5452L104.379 20.5151C104.379 20.5151 104.396 20.5237 104.403 20.528C104.439 20.5516 104.478 20.5731 104.513 20.5989L104.565 20.6376L104.649 20.7086C104.792 20.8333 104.93 20.9644 105.067 21.0977C105.605 21.6374 106.083 22.2394 106.496 22.8822C106.911 23.525 107.266 24.2087 107.56 24.9161C107.856 25.6234 108.094 26.3566 108.276 27.1026C108.375 27.4875 108.449 27.8186 108.403 28.1733C108.395 28.2421 108.347 28.5925 108.172 28.9387C108.081 29.0956 107.936 29.2891 107.707 29.431C106.557 30.1448 104.595 28.7473 104.375 28.5904C102.184 27.0295 101.648 24.3313 101.583 23.9873C101.252 22.1964 101.33 19.1111 100.696 18.0963C100.052 17.0665 99.6234 17.189 98.501 15.7808C98.501 15.7808 97.2683 14.235 96.3925 11.8334C94.6711 7.11423 96.1221 0.724489 96.267 0.111745C95.9037 0.00639564 95.3393 -0.0925035 94.7532 0.105295C93.3692 0.573991 92.8848 2.33483 92.476 3.82906C92.156 5.0008 91.8078 6.86269 92.0478 9.24701C91.8316 8.86432 91.544 8.26662 91.3883 7.49908C90.9817 5.48885 91.8164 3.99891 91.3255 3.71941C90.9925 3.52806 90.3264 4.05911 90.0085 4.39021C89.4333 4.9879 89.1868 5.76405 89.0938 6.93794C89.0137 7.95488 89.0202 9.66196 89.7101 11.8033C89.4614 11.5819 89.1002 11.2164 88.7867 10.6897C87.8568 9.13092 88.2525 7.68613 87.7573 7.55068C87.3572 7.44103 86.7214 8.28382 86.436 8.99977C86.2694 9.41471 86.1072 10.0726 86.3192 11.2594C86.6154 12.9149 87.3961 14.2135 88.086 15.095C87.6989 14.9595 87.1691 14.7123 86.7084 14.2328C85.9061 13.3986 85.8758 12.4397 85.5406 12.4354C85.2357 12.4333 84.8789 13.2223 84.8054 13.9963C84.6129 15.9915 86.3019 17.619 86.769 18.0684C87.3464 18.6252 88.2979 19.5433 89.762 19.8486C91.1958 20.1496 92.1192 19.6529 93.7498 20.3151C94.2796 20.5301 94.6105 20.7559 94.8419 20.9494C95.6831 21.646 95.9924 22.5275 96.094 22.7897C96.8163 24.6688 99.6039 28.0422 102.852 30.2158C99.2038 28.6291 96.2151 25.2579 95.5339 23.381C95.4301 23.0972 95.0646 21.9728 94.0872 21.3299C93.5487 20.9752 92.9042 20.8204 92.9042 20.8204C91.9592 20.5731 91.4229 20.7946 90.2767 20.8247C90.2767 20.8247 89.576 20.844 88.2114 20.6656C86.1267 20.3947 84.4529 19.3928 83.337 18.7091C81.6804 17.6964 80.6402 16.7225 78.6312 14.8176C77.5369 13.7813 76.0902 12.3516 74.4574 10.5564C74.332 10.6531 74.1525 10.8208 74.0141 11.0702C73.4821 12.0312 74.1049 13.2911 74.4747 14.0178C75.8501 16.7182 79.2151 20.0141 79.9504 20.7258C78.642 20.0851 77.6062 19.4465 76.8536 18.9391C75.6944 18.1587 75.117 17.7674 74.6867 17.2578C74.0336 16.4839 73.7503 15.7593 73.348 15.8131C72.9544 15.8647 72.7598 16.6172 72.749 16.658C72.2905 18.4941 74.6629 20.6333 76.1507 21.99C77.0871 22.8435 77.9695 23.4777 78.6615 23.9292C77.4894 23.6648 76.607 23.2907 75.9994 22.9811C75.143 22.5468 74.5223 22.0867 74.2066 22.3125C73.9363 22.5059 74.0465 23.08 74.0898 23.3143C74.4293 25.0988 76.3756 26.879 77.4613 27.7691C77.1325 27.7928 76.8774 27.8852 76.7563 28.0787C76.2113 28.9494 78.7199 31.6111 80.9884 33.2172C82.8288 34.52 84.2712 35.5413 86.3084 35.6509C89.9653 35.8487 91.3666 32.8861 94.165 33.7461C95.2052 34.0664 96.4249 34.9092 97.703 34.591C97.8976 34.5437 98.4123 34.3889 98.8621 34.563C98.462 34.7522 98.0382 34.8898 97.597 34.9479C96.6195 35.0769 95.6377 34.8253 94.6559 34.7157C92.7247 34.5007 91.3082 35.4295 90.0107 36.7668C89.8701 36.9108 89.7339 37.0592 89.602 37.214C89.4614 37.3752 89.3489 37.5515 89.2387 37.7257C89.0246 38.0761 88.8451 38.4459 88.6915 38.8286C88.5683 39.1339 88.4623 39.4521 88.3758 39.7789L88.3304 39.9573L88.2871 40.1702C88.259 40.3121 88.2244 40.4583 88.2114 40.5873C88.1812 40.8517 88.1855 41.0646 88.1768 41.3097L88.1725 41.4967V41.5462V41.5698L88.1876 41.5569L88.2504 41.501L88.4991 41.2796L88.6245 41.1678C88.6677 41.1269 88.7023 41.1054 88.7564 41.0388L89.0592 40.6991C89.1067 40.6453 89.1522 40.5937 89.1997 40.54C89.1003 40.7206 88.9986 40.9033 88.8991 41.0818C88.8169 41.228 88.7348 41.3742 88.6548 41.5204L88.6396 41.5483C88.6396 41.5483 88.6569 41.544 88.6634 41.5419L88.7261 41.5182L88.8472 41.4709L89.0786 41.3785C89.3727 41.2624 89.669 41.1355 90.0064 40.9098C90.0907 40.8539 90.1772 40.7915 90.2616 40.727L90.454 40.583L90.7611 40.3551C90.9795 40.1702 91.2001 39.9832 91.4207 39.7961L91.4423 39.8498L91.4531 39.8756L91.4791 39.9358C91.5483 40.0863 91.6218 40.2368 91.7018 40.3809C91.8597 40.6733 92.0414 40.9549 92.2446 41.2194C92.649 41.7526 93.1486 42.2062 93.7087 42.5653C93.8514 42.6427 93.992 42.7201 94.1326 42.7975C94.1823 42.8254 94.2429 42.8598 94.3077 42.8942C94.3358 42.9114 94.3856 42.9329 94.4072 42.9437L94.4526 42.9652C94.5132 42.9931 94.5694 43.0211 94.5694 43.0297L94.5845 43.0533C94.5435 43.0748 94.5067 43.0877 94.4851 43.1028C94.4267 43.1393 94.3683 43.1759 94.3121 43.2103C94.1109 43.335 93.9185 43.4468 93.7411 43.5371C93.4449 43.6854 93.1745 43.7951 92.8458 43.8811C92.6945 43.9198 92.5431 43.9499 92.3895 43.9757L92.1603 44.0079C92.1214 44.0144 92.0824 44.0165 92.0457 44.0187L91.9635 44.0251C91.9073 44.038 91.8748 43.9907 91.8597 43.937C91.81 43.8209 91.7797 43.6983 91.7364 43.5801C91.6564 43.3307 91.5742 43.077 91.4618 42.8211C91.425 42.7394 91.3839 42.6556 91.332 42.5717C91.3039 42.5266 91.278 42.4879 91.2325 42.4363C91.185 42.3847 91.1266 42.3395 91.0617 42.3116C90.8238 42.217 90.6249 42.232 90.4346 42.2557C90.3264 42.2686 90.2399 42.2901 90.1599 42.3116C90.015 42.3503 89.7361 42.4234 89.5609 42.5094C89.4528 42.561 89.1348 42.7394 88.8926 43.264C89.2365 43.1436 89.5241 43.1329 89.6668 43.1587C89.7555 43.1759 89.9069 43.2296 89.9674 43.2683C90.0237 43.3027 90.0583 43.3285 90.1058 43.3608C90.1945 43.4231 90.2789 43.4919 90.361 43.565C90.4021 43.5994 90.441 43.6381 90.4821 43.6747L90.5492 43.7435C90.5816 43.78 90.6162 43.8187 90.6292 43.866C90.6443 43.9176 90.5881 43.9649 90.5384 43.952C90.4843 43.9477 90.4454 43.9413 90.3827 43.9305L90.0366 43.8703C89.7425 43.8166 89.2927 43.7263 88.7499 43.5672C88.5055 43.4962 88.4926 43.4855 88.0817 43.3565C87.2988 43.1114 86.9052 42.991 86.4619 42.905C86.0251 42.8211 85.7115 42.7631 85.279 42.7803C85.093 42.7889 84.9849 42.8061 84.2604 42.8985C83.9166 42.9437 83.6376 42.9781 83.4646 42.9996C84.4139 43.5908 85.253 43.9714 85.8802 44.2165C86.6457 44.5175 87.3377 44.711 87.7443 44.8271C87.8092 44.8464 88.4125 45.0141 89.0073 45.1453C89.0743 45.1603 89.1911 45.1861 89.3533 45.2205C90.8022 45.5193 92.6685 45.5881 92.6685 45.5881C93.739 45.6247 95.3025 45.6763 97.3353 45.3968C100.532 44.9539 102.861 43.9649 103.631 43.6209C103.631 43.6209 106.317 42.4212 108.596 40.5335C108.976 40.2196 109.238 39.9681 109.461 39.7316C110.438 38.6975 110.951 37.6569 111.156 37.229C111.206 37.1237 111.308 36.8764 111.345 36.8141C111.606 36.3561 111.788 35.709 111.909 35.1328C112.028 34.5931 112.095 34.0406 112.108 33.4881C112.121 33.0151 112.084 32.5399 112.028 32.0734C112.106 32.2389 112.188 32.4109 112.27 32.598L112.404 32.914L112.467 33.0731L112.536 33.2645C112.649 33.5633 112.729 33.9739 112.809 34.3674C112.824 34.3588 112.839 34.3545 112.848 34.3566H112.865C112.865 34.3566 112.869 34.3566 112.873 34.3566L112.889 34.3308L113.001 34.1266C113.072 33.9933 113.142 33.86 113.206 33.7246C113.334 33.4472 113.444 33.0903 113.481 32.8904C113.576 32.4217 113.572 31.9336 113.475 31.4649C113.377 30.9962 113.185 30.5533 112.934 30.1513C112.813 29.947 112.666 29.7621 112.519 29.5772L112.08 29.0462C110.873 27.5735 109.774 25.918 108.795 24.2883C108.522 23.7809 108.254 23.2713 108.029 22.7467C107.845 22.3297 107.701 21.9018 107.564 21.4654C108.496 22.493 109.208 23.697 110.09 24.7935C110.635 25.4901 111.258 26.1459 111.97 26.6855C112.123 26.7973 112.313 26.922 112.489 27.0231C112.668 27.1198 112.822 27.2101 112.899 27.2574C113.356 27.5563 113.903 27.7261 114.428 27.8551C115.058 28.0013 115.685 28.055 116.364 28.0529C117.251 28.0443 118.289 27.7842 119.149 27.4294C119.273 27.3821 119.502 27.2811 119.567 27.2316C119.98 26.9779 120.484 26.664 120.925 26.3458C121.487 25.9309 121.881 25.5202 122.261 25.0945C122.397 24.9333 122.532 24.7828 122.583 24.6989C122.596 24.6839 122.612 24.671 122.625 24.6538C122.687 24.585 122.73 24.5377 122.765 24.5033C122.754 24.5183 122.741 24.5355 122.735 24.5506C122.679 24.6452 122.672 24.6968 122.7 24.7247C122.735 24.7591 122.785 24.7591 122.867 24.7075C122.958 24.6409 123.031 24.5957 123.284 24.4646L124.331 23.9271L123.146 23.9679L123.137 23.983ZM105.642 19.1391C105.642 19.1391 105.635 19.1498 105.633 19.1563C105.633 19.1606 105.637 19.167 105.625 19.1713C105.62 19.1713 105.625 19.1756 105.625 19.1778C105.633 19.1885 105.605 19.1993 105.56 19.1993C105.553 19.1993 105.551 19.1993 105.549 19.1993C105.56 19.1993 105.566 19.2036 105.573 19.21C105.59 19.2315 105.575 19.2509 105.577 19.2659C105.573 19.2853 105.57 19.3003 105.566 19.3197C105.566 19.3218 105.575 19.3283 105.573 19.3304C105.568 19.3433 105.573 19.3584 105.557 19.367C105.542 19.3756 105.534 19.3863 105.536 19.4014C105.536 19.4164 105.527 19.425 105.523 19.4379C105.523 19.4422 105.523 19.4465 105.51 19.4444C105.501 19.4444 105.497 19.4465 105.506 19.4594C105.506 19.4616 105.506 19.4616 105.501 19.4616C105.501 19.4616 105.493 19.4616 105.495 19.4616C105.503 19.4831 105.484 19.4852 105.48 19.496C105.48 19.4981 105.471 19.496 105.48 19.5089C105.48 19.511 105.48 19.5153 105.477 19.5132C105.469 19.5089 105.467 19.5089 105.464 19.5132C105.456 19.5239 105.445 19.5304 105.436 19.539C105.443 19.5562 105.432 19.5562 105.428 19.5605C105.423 19.5626 105.415 19.5605 105.408 19.5605C105.402 19.5605 105.404 19.5734 105.391 19.5626V19.5669C105.387 19.5712 105.384 19.5798 105.376 19.5777C105.371 19.5777 105.367 19.5777 105.365 19.5777C105.33 19.597 105.294 19.6121 105.257 19.6228C105.253 19.6228 105.25 19.6228 105.248 19.6336C105.248 19.6422 105.242 19.6443 105.237 19.6379C105.231 19.6271 105.227 19.6314 105.222 19.6314C105.214 19.6314 105.207 19.6336 105.198 19.6336C105.194 19.6336 105.19 19.6443 105.183 19.625C105.183 19.625 105.183 19.625 105.181 19.625C105.177 19.6422 105.173 19.6293 105.166 19.625C105.162 19.625 105.16 19.625 105.155 19.6336C105.151 19.6422 105.144 19.6443 105.142 19.6336C105.138 19.6207 105.134 19.625 105.129 19.625C105.103 19.625 105.077 19.6185 105.051 19.6164C105.038 19.6142 105.023 19.6271 105.012 19.6164C105.01 19.6164 105.004 19.6185 105.006 19.6056C105.006 19.6035 105.004 19.6056 105.002 19.6056C104.995 19.6142 104.993 19.6099 104.989 19.6078C104.971 19.5992 104.958 19.5863 104.939 19.5884C104.922 19.5884 104.913 19.5798 104.9 19.5734C104.896 19.5734 104.896 19.5626 104.894 19.5583C104.891 19.554 104.887 19.5519 104.883 19.5497C104.881 19.5497 104.881 19.5433 104.872 19.5497C104.868 19.554 104.863 19.5519 104.865 19.5497C104.87 19.5347 104.863 19.5368 104.859 19.5325C104.848 19.5218 104.835 19.5132 104.824 19.5003C104.822 19.4981 104.814 19.5003 104.824 19.4852C104.824 19.4852 104.82 19.4852 104.818 19.4852H104.811C104.82 19.4637 104.805 19.4637 104.798 19.4551C104.785 19.4358 104.77 19.4164 104.759 19.3928C104.757 19.3863 104.742 19.3863 104.74 19.3799C104.738 19.3734 104.734 19.3691 104.731 19.3627C104.731 19.3584 104.723 19.3562 104.736 19.3455C104.74 19.3433 104.738 19.339 104.736 19.339C104.718 19.339 104.725 19.3326 104.721 19.3283C104.716 19.324 104.723 19.3132 104.705 19.3111C104.701 19.3111 104.708 19.3046 104.708 19.3025C104.708 19.2982 104.708 19.2939 104.705 19.2896C104.705 19.2896 104.699 19.2874 104.697 19.2853C104.69 19.2681 104.682 19.2509 104.679 19.2337C104.677 19.2165 104.675 19.1971 104.679 19.1778C104.679 19.1584 104.679 19.1412 104.686 19.124C104.686 19.1176 104.677 19.1068 104.699 19.1047C104.686 19.0961 104.697 19.0918 104.712 19.0896C104.714 19.0896 104.708 19.0853 104.708 19.0832C104.703 19.0767 104.684 19.0681 104.708 19.0681C104.708 19.0681 104.69 19.0552 104.705 19.0531C104.714 19.0531 104.714 19.0466 104.716 19.0423C104.718 19.038 104.721 19.0337 104.721 19.0294C104.721 19.0251 104.731 19.023 104.716 19.0122C104.714 19.0122 104.727 19.0122 104.727 19.0101C104.727 18.9993 104.746 18.9972 104.734 18.9778C104.729 18.9735 104.734 18.9692 104.738 18.9692C104.755 18.9692 104.753 18.9585 104.753 18.9456C104.753 18.9305 104.757 18.9176 104.783 18.9219C104.788 18.9219 104.792 18.9241 104.788 18.9176C104.783 18.9133 104.788 18.9112 104.788 18.909C104.805 18.8875 104.822 18.8682 104.842 18.851C104.848 18.8467 104.863 18.8553 104.865 18.8445C104.865 18.8402 104.874 18.8445 104.865 18.8316V18.8295C104.883 18.8381 104.876 18.8123 104.887 18.8144C104.889 18.8144 104.894 18.8144 104.896 18.8166C104.898 18.8166 104.902 18.8187 104.902 18.8166C104.902 18.7929 104.924 18.7972 104.932 18.7865C104.937 18.7822 104.945 18.7886 104.941 18.7714C104.941 18.7693 104.941 18.7671 104.945 18.7714C104.963 18.7865 104.963 18.7671 104.974 18.7714C104.978 18.7714 104.98 18.7607 104.989 18.7757H104.991C104.991 18.7736 104.991 18.7671 104.993 18.7671C104.997 18.7671 105.006 18.7736 105.008 18.7671C105.01 18.7585 105.017 18.7607 105.021 18.7585C105.023 18.7585 105.03 18.765 105.032 18.765C105.034 18.765 105.038 18.765 105.041 18.765C105.045 18.765 105.049 18.7607 105.054 18.7628C105.058 18.765 105.058 18.7478 105.064 18.7585C105.069 18.7671 105.071 18.7499 105.073 18.7478C105.073 18.7478 105.077 18.7478 105.08 18.7478L105.084 18.7542C105.086 18.7542 105.09 18.7542 105.093 18.7478C105.093 18.7413 105.099 18.7521 105.103 18.7521C105.108 18.7521 105.11 18.7521 105.114 18.7521C105.116 18.7521 105.121 18.7542 105.123 18.7521C105.136 18.7327 105.149 18.7435 105.164 18.7435C105.168 18.7435 105.173 18.737 105.175 18.7521C105.175 18.7542 105.177 18.7542 105.179 18.7521C105.194 18.7306 105.205 18.7521 105.218 18.7456C105.229 18.7435 105.24 18.7349 105.248 18.7413C105.257 18.7456 105.266 18.7521 105.276 18.7478C105.285 18.7435 105.294 18.7413 105.3 18.7478C105.304 18.7542 105.324 18.7284 105.322 18.7542C105.328 18.7564 105.337 18.7585 105.341 18.7628C105.346 18.7671 105.356 18.7628 105.354 18.78C105.354 18.7865 105.359 18.7865 105.363 18.7843C105.378 18.7736 105.382 18.7822 105.384 18.7929C105.384 18.7951 105.391 18.7908 105.393 18.7929C105.4 18.7951 105.406 18.7972 105.41 18.8037C105.421 18.8209 105.449 18.8166 105.464 18.8295C105.467 18.8316 105.477 18.8252 105.48 18.8295C105.48 18.8574 105.51 18.8574 105.514 18.8789C105.521 18.9112 105.547 18.9262 105.557 18.952C105.557 18.9563 105.549 18.9649 105.553 18.9649C105.566 18.9649 105.56 18.9735 105.57 18.9735C105.588 18.9735 105.581 18.9864 105.59 18.9907C105.594 18.995 105.59 19.0058 105.607 19.0036C105.609 19.0036 105.609 19.0036 105.607 19.0079C105.594 19.023 105.62 19.0208 105.616 19.0337C105.642 19.0423 105.633 19.0638 105.642 19.081C105.642 19.0832 105.648 19.0853 105.65 19.0875C105.65 19.0875 105.655 19.0875 105.655 19.0918C105.637 19.1111 105.655 19.124 105.653 19.1412L105.642 19.1391Z" fill="white"/>
</g>
<defs>
<clipPath id="clip0_221_40">
<rect width="197" height="108" fill="white"/>
</clipPath>
</defs>
</svg>
