<svg width="350" height="81" viewBox="0 0 350 81" fill="none" xmlns="http://www.w3.org/2000/svg">
<g clip-path="url(#clip0_22_75)">
<path d="M124.916 80.753V68.1073H129.488C133.584 68.1073 136.023 70.7254 136.023 74.3465C136.023 77.9677 133.584 80.753 129.546 80.753H124.916ZM129.469 78.9633C132.327 78.9633 133.814 76.8886 133.814 74.3465C133.814 71.8045 132.308 69.8438 129.411 69.8438H127.067V78.9671H129.469V78.9633Z" fill="#C25B32"/>
<path d="M142.24 80.753V68.1073H149.94V69.84H144.395V73.4574H149.578V75.1331H144.395V78.9785H150.113V80.7492H142.244L142.24 80.753Z" fill="#C25B32"/>
<path d="M163.468 71.7817C163.333 69.878 161.827 69.5398 160.629 69.5398C159.43 69.5398 158.131 70.011 158.131 71.2345C158.131 74.4187 165.716 72.4391 165.716 77.2268C165.716 79.3737 164.021 80.9962 160.609 80.9962C159.218 80.9962 155.711 80.563 155.542 76.8316H157.693C157.77 78.7353 159.295 79.3205 160.798 79.3205C162.3 79.3205 163.502 78.7923 163.502 77.4928C163.502 74.2516 155.937 76.3642 155.937 71.4055C155.937 68.9167 158.358 67.8983 160.836 67.8983C162.419 67.8983 165.447 68.4455 165.619 71.7817H163.468Z" fill="#C25B32"/>
<path d="M171.798 80.753V68.1073H173.949V80.753H171.798Z" fill="#C25B32"/>
<path d="M190.301 80.753L190.075 78.6251C189.237 80.3388 187.577 81 186.186 81C182.567 81 180.262 78.5301 180.262 74.4415C180.262 70.353 182.625 67.9021 186.302 67.9021C189.141 67.9021 191.008 69.3916 191.523 71.9337H189.314C188.953 70.5012 187.923 69.6728 186.302 69.6728C183.785 69.6728 182.471 71.4625 182.471 74.4415C182.471 77.4206 183.785 79.2863 186.321 79.2863C188.15 79.2863 189.425 78.0057 189.425 75.8171V75.6119H186.432V74.1224H191.692V80.7568H190.301V80.753Z" fill="#C25B32"/>
<path d="M206.465 80.753L200.329 71.3865V80.753H198.178V68.1073H200.464L206.715 77.679V68.1073H208.867V80.753H206.465Z" fill="#C25B32"/>
<path d="M222.837 71.7817C222.702 69.878 221.196 69.5398 219.997 69.5398C218.799 69.5398 217.5 70.011 217.5 71.2345C217.5 74.4187 225.084 72.4391 225.084 77.2268C225.084 79.3737 223.39 80.9962 219.978 80.9962C218.587 80.9962 215.079 80.563 214.91 76.8316H217.062C217.139 78.7353 218.664 79.3205 220.166 79.3205C221.669 79.3205 222.871 78.7923 222.871 77.4928C222.871 74.2516 215.306 76.3642 215.306 71.4055C215.306 68.9167 217.727 67.8983 220.205 67.8983C221.788 67.8983 224.815 68.4455 224.988 71.7817H222.837Z" fill="#C25B32"/>
<path d="M21.9732 43.0592C24.4898 43.0592 28.8968 42.7476 32.2394 41.9344L32.4853 35.2392C28.989 36.2993 26.1804 36.4437 24.9009 36.4437C14.5848 36.4437 10.9117 28.1488 10.9117 20.3858C10.9117 10.9928 16.3829 5.60468 25.9229 5.60468C28.4587 5.60468 30.9638 5.98466 33.4996 6.76362L33.7571 1.17793C29.7305 0.440775 26.2534 0 22.4496 0C7.34233 0 0 6.66862 0 20.382C0 25.7017 1.58296 43.0554 21.9732 43.0554V43.0592Z" fill="#C25B32"/>
<path d="M160.106 0.873927C158.485 0.873927 156.394 0.873927 154.546 0.847328C155.484 8.85347 155.572 16.7684 155.572 23.684V32.6743L150.428 25.2609C145.537 18.2123 140.734 10.1948 135.774 0.790331C133.895 0.896725 131.909 0.938523 129.254 0.938523C126.03 0.938523 123.041 0.881526 120.317 0.763733C120.716 8.3519 120.97 15.0015 120.97 21.7917C120.97 27.7232 120.766 36.1169 120.221 42.5424C122.353 42.4018 124.616 42.379 126.391 42.379C127.605 42.379 128.643 42.3904 129.557 42.417C129.4 41.391 129.177 39.8103 129.012 37.8648C128.931 36.9073 128.731 34.331 128.835 27.2596C128.854 25.8803 128.892 23.9576 128.965 21.6511C129.108 19.4473 129.246 17.2396 129.388 15.0357C131.094 17.1978 132.454 18.9647 133.33 20.1084C142.344 31.8726 146.205 38.0814 147.323 39.9053C148.038 41.068 148.595 42.0104 148.898 42.5272C151.584 42.341 153.517 42.2384 156.633 42.2384C159.092 42.2384 161.335 42.303 163.403 42.4322C162.995 37.671 162.941 32.2411 162.941 28.2552C162.941 16.7076 163.36 8.24171 164.325 0.794131C163.026 0.843528 161.627 0.866327 160.11 0.866327L160.106 0.873927Z" fill="#C25B32"/>
<path d="M293.332 42.379C295.764 42.208 298.066 42.0446 307.368 42.0446C311.41 42.0446 312.178 42.075 314.23 42.1586C314.698 42.1776 315.233 42.2004 315.893 42.2232L316.393 36.5311C313.373 36.7059 309.896 36.7059 306.28 36.7059H303.506L303.46 33.9625C303.437 32.663 303.418 31.6522 303.399 30.7479C303.356 28.81 303.326 27.2787 303.326 24.3528C303.326 20.6974 303.387 9.30188 304.098 0.934753C302.296 1.00695 300.655 1.00695 298.861 1.00695C296.702 1.00695 294.489 1.00695 292.222 0.942353C292.894 8.67871 292.963 13.3486 292.963 22.7379C292.963 34.8972 292.871 38.2068 292.652 42.4246C292.89 42.4094 293.117 42.3942 293.344 42.3752L293.332 42.379Z" fill="#C25B32"/>
<path d="M345.101 0.942337C342.869 0.942337 340.637 0.88914 338.132 0.775146C338.658 8.50771 338.658 13.3296 338.658 23.3497C338.658 29.9765 338.347 37.2607 338.078 42.2992C339.576 42.2346 341.117 42.1852 342.715 42.1852C345.036 42.1852 347.449 42.284 349.827 42.4702C349.401 36.7857 349.362 31.3976 349.362 25.5725C349.362 11.4411 349.639 5.65787 350 0.835943C348.505 0.908139 346.896 0.942337 345.101 0.942337Z" fill="#C25B32"/>
<path d="M199.334 36.6451L199.219 22.7797H202.062C205.893 22.7797 208.724 22.7987 211.337 22.8709L214.107 18.125C211.103 18.2732 207.629 18.3188 202.131 18.3188H199.311V15.5297C199.311 13.0979 199.311 10.8028 199.453 8.36715L199.607 5.7377H202.27C203.092 5.7377 203.699 5.7111 204.402 5.6845C205.324 5.64651 206.369 5.60471 208.125 5.60471C211.041 5.60471 213.785 5.7187 216.439 5.95049C216.37 3.86441 216.336 2.61808 216.336 0.782783V0.706787C212.348 0.957573 207.168 1.07917 200.629 1.07917C198.247 1.07917 192.945 1.06017 188.157 0.927175C188.599 5.28933 188.872 11.2968 188.872 22.1376C188.872 34.6237 188.872 38.5792 188.638 42.36C193.79 42.0484 198.535 42.0484 203.15 42.0484C207.764 42.0484 211.114 42.0484 215.917 42.3866L216.624 36.3298C212.866 36.6185 207.772 36.6489 202.128 36.6489H199.33L199.334 36.6451Z" fill="#C25B32"/>
<path d="M251.372 36.6451L251.257 22.7797H254.1C257.931 22.7797 260.762 22.7987 263.375 22.8709L266.145 18.125C263.141 18.2732 259.667 18.3188 254.169 18.3188H251.349V15.5297C251.349 13.0979 251.349 10.8028 251.491 8.36715L251.645 5.7377H254.308C255.13 5.7377 255.737 5.7111 256.44 5.6845C257.362 5.64651 258.407 5.60471 260.163 5.60471C263.079 5.60471 265.823 5.7187 268.477 5.95049C268.408 3.86441 268.374 2.61808 268.374 0.782783V0.706787C264.386 0.957573 259.206 1.07917 252.667 1.07917C250.285 1.07917 244.983 1.06017 240.195 0.927175C240.637 5.28933 240.91 11.2968 240.91 22.1376C240.91 34.6237 240.91 38.5792 240.676 42.36C245.828 42.0484 250.573 42.0484 255.187 42.0484C259.802 42.0484 263.152 42.0484 267.955 42.3866L268.662 36.3298C264.904 36.6185 259.81 36.6489 254.165 36.6489H251.368L251.372 36.6451Z" fill="#C25B32"/>
<path d="M84.5156 0.433182C82.4869 0.577574 79.8589 0.604172 75.0331 0.604172C74.6797 0.604172 72.2015 0.604172 69.9654 0.573774C66.1616 10.5748 58.3928 29.1937 52.2185 42.2004C53.3174 42.1776 54.4354 42.1776 55.6226 42.1776C55.9915 42.1776 60.7634 42.1814 63.1609 42.3258C63.8218 40.0991 64.7132 37.2569 65.6852 34.2779C65.9311 33.5749 66.177 32.8719 66.4229 32.1652C68.8473 32.2108 71.2871 32.2488 73.7422 32.2754C76.8082 32.3096 79.8512 32.3324 82.875 32.3438L84.8767 32.3932L85.4876 34.2779C86.1523 36.3221 86.7747 38.355 87.3741 40.3233C87.6085 41.0947 87.8429 41.8622 88.0811 42.626C90.4862 42.417 93.0297 42.3106 95.6731 42.3106C96.5376 42.3106 97.429 42.322 98.3357 42.3448C94.7395 32.2222 87.9427 11.6387 84.5156 0.429382V0.433182ZM82.6406 18.6835C81.7338 18.7747 80.9769 18.8089 80.4583 18.8241C80.6965 19.2193 81.0231 19.8387 81.292 20.6442C81.5494 21.427 81.7876 22.1337 81.5456 22.3313C81.3458 22.4947 80.7503 22.3731 78.8484 20.8304C78.7216 21.4536 78.4911 22.3807 78.0262 23.4409C77.7226 24.1362 76.8927 26.0285 76.3126 25.9221C75.9053 25.8461 75.7785 24.8088 75.5595 22.8481C75.4289 21.6854 75.3789 20.724 75.3559 20.0895C74.8564 20.6214 74.1302 21.2636 73.139 21.7956C72.651 22.0578 72.3475 22.2135 72.2053 22.1033C71.9556 21.9134 72.2399 20.9672 73.5962 18.5961C72.9545 18.562 72.0017 18.4746 70.8644 18.2352C70.242 18.106 67.4757 17.5246 67.5025 16.947C67.5218 16.5139 69.0778 16.2441 70.2996 16.0313C71.5445 15.8147 72.5857 15.7577 73.285 15.7463C72.4858 14.4582 71.6329 12.9155 71.9748 12.6267C72.067 12.5469 72.2284 12.5849 72.3821 12.6343C73.673 13.0447 74.987 14.3594 75.475 14.8762C75.3866 14.0288 75.329 12.7749 75.5365 11.274C75.6786 10.2328 75.8554 8.9561 76.2127 8.9181C76.5277 8.8877 77.0772 9.80345 78.1107 14.3366C78.9214 13.4474 79.7321 12.9725 80.2815 12.7103C80.9232 12.4063 81.0538 12.4709 81.0922 12.4975C81.5264 12.7901 80.8002 14.5912 80.0779 16.1529C80.781 16.2517 81.8261 16.4151 83.0824 16.6697C85.161 17.0952 86.8477 17.4372 86.8324 17.7944C86.817 18.277 83.7202 18.5847 82.6367 18.6911L82.6406 18.6835Z" fill="#C25B32"/>
</g>
<defs>
<clipPath id="clip0_22_75">
<rect width="350" height="81" fill="white"/>
</clipPath>
</defs>
</svg>
