<svg width="30" height="30" viewBox="0 0 30 30" fill="none" xmlns="http://www.w3.org/2000/svg">
<path d="M21.0272 6.418C20.1109 5.36742 19.56 3.99756 19.56 2.5H18.4116C18.7074 4.13687 19.6817 5.54157 21.0272 6.418Z" fill="#D15321"/>
<path d="M10.4022 14.8809C8.41295 14.8809 6.79486 16.5004 6.79486 18.4913C6.79486 19.8786 7.58361 21.0859 8.73192 21.6895C8.30276 21.0975 8.04757 20.372 8.04757 19.5825C8.04757 17.5916 9.66566 15.9721 11.655 15.9721C12.0261 15.9721 12.3857 16.0359 12.7221 16.1404V11.7523C12.3741 11.7058 12.0203 11.6768 11.655 11.6768C11.5911 11.6768 11.5331 11.6826 11.4693 11.6826V15.0491C11.1272 14.9446 10.7734 14.8809 10.4022 14.8809Z" fill="#D15321"/>
<path d="M24.2807 8.34521V11.6828C22.0537 11.6828 19.989 10.9689 18.307 9.7615V18.4972C18.307 22.8565 14.7635 26.4089 10.4022 26.4089C8.72029 26.4089 7.15441 25.8749 5.87268 24.9751C7.31678 26.5249 9.37564 27.5001 11.6549 27.5001C16.0104 27.5001 19.5598 23.9535 19.5598 19.5885V10.8528C21.2417 12.0601 23.3063 12.774 25.5334 12.774V8.47878C25.0984 8.47878 24.6808 8.43229 24.2807 8.34521Z" fill="#D15321"/>
<path d="M18.307 18.4971V9.76139C19.989 10.9688 22.0536 11.6827 24.2806 11.6827V8.3451C22.9931 8.07235 21.8624 7.37579 21.0272 6.418C19.6817 5.54157 18.713 4.13687 18.4056 2.5H15.2622L15.2564 19.7219C15.1869 21.649 13.5977 23.1989 11.6549 23.1989C10.4485 23.1989 9.38721 22.601 8.72606 21.6955C7.57774 21.086 6.789 19.8845 6.789 18.4971C6.789 16.5062 8.40709 14.8867 10.3963 14.8867C10.7675 14.8867 11.1271 14.9506 11.4635 15.0551V11.6885C7.19497 11.7814 3.75 15.2872 3.75 19.5884C3.75 21.6664 4.55615 23.5587 5.87265 24.975C7.15437 25.8747 8.72026 26.4088 10.4021 26.4088C14.7576 26.4088 18.307 22.8564 18.307 18.4971Z" fill="#D15321"/>
</svg>
